:SAMPLES-PER-SECOND 30
:FULLY-SPECIFIED
:DEGREES
1503
root  -4.90639 36.1273 0.239629 172.742 78.5679 169.623
RightUpLeg  -13.2699 -6.94058 -15.763
RightLeg  44.0031 -0.702581 -1.03732
RightFoot  -24.4487 1.25352 12.3931
RightToes  -1.81608e-008 0 -3.6325e-017
Spine  19.8668 0.492277 -16.3953
Spine1  -11.2165 -3.04754 12.1797
HEad  -26.1262 -3.11502 -1.0609
LeftShoulder1  0.00512457 3.48323 -17.37
LeftArm  -3.28439 -28.1885 -58.8878
LeftForeArm  2.95838 -56.5662 -17.0193
LeftHand  -0.071286 7.44039 -1.59451
RightShoulder  -0.329981 -4.66861 21.2219
RightArm  -12.0194 0.85638 30.1991
RightForeArm  16.5696 75.8889 55.8079
RightHand  -0.157501 0.726619 -3.07682
LeftUpLeg  -17.3241 15.3804 19.0291
LeftLeg  2.20169 -10.8635 0.427386
LeftFoot  11.5596 4.98528 -24.636
LeftToes  1.81866e-011 -6.13092e-011 2.52013e-011
1504
root  -4.13307 36.4561 -0.288923 179.53 77.6245 177.34
RightUpLeg  -11.7774 -7.98407 -15.5806
RightLeg  45.2867 0.601131 0.356928
RightFoot  -19.382 1.09465 17.6529
RightToes  -1.81608e-008 0 -3.6325e-017
Spine  19.106 0.731336 -17.4318
Spine1  -11.1718 -2.9784 13.0938
HEad  -23.7304 -4.16453 -0.179013
LeftShoulder1  -0.0255437 3.61191 -16.8187
LeftArm  -0.969116 -27.6385 -59.4627
LeftForeArm  2.44042 -56.173 -16.7922
LeftHand  -0.0679722 7.08641 -1.80787
RightShoulder  -0.417144 -4.94659 21.9893
RightArm  -11.0915 -1.32743 29.2228
RightForeArm  14.9353 75.6856 54.7276
RightHand  -0.168047 1.00715 -3.16563
LeftUpLeg  -16.1775 15.9034 19.9919
LeftLeg  3.42028 -13.0512 0.130677
LeftFoot  9.52769 4.56063 -24.7354
LeftToes  1.81866e-011 -6.13092e-011 2.52013e-011
1505
root  -3.43315 36.829 -0.855533 -172.744 77.5266 -174.291
RightUpLeg  -13.4008 -10.1095 -15.6176
RightLeg  49.5777 2.53199 2.86647
RightFoot  -9.35361 -0.383205 20.1047
RightToes  -1.81608e-008 0 -3.6325e-017
Spine  18.4295 0.962943 -17.3006
Spine1  -11.3423 -2.67513 13.7133
HEad  -22.3237 -4.81038 -0.607455
LeftShoulder1  -0.0522352 3.72154 -17.3093
LeftArm  0.277892 -26.9149 -58.8516
LeftForeArm  2.6943 -56.4496 -16.9605
LeftHand  -0.0834511 7.42332 -2.31869
RightShoulder  -0.460888 -5.09114 22.1418
RightArm  -10.1773 -2.34446 28.8673
RightForeArm  12.3319 75.1952 52.0229
RightHand  -0.150212 1.29658 -2.73799
LeftUpLeg  -14.494 16.7946 21.5772
LeftLeg  3.78669 -14.6588 -0.142649
LeftFoot  7.80661 4.11306 -24.3411
LeftToes  1.81866e-011 -6.13092e-011 2.52013e-011
1506
root  -2.8059 37.1369 -1.37594 -167.88 77.0438 -169.066
RightUpLeg  -16.4795 -13.4733 -16.5805
RightLeg  54.6223 4.67706 6.68247
RightFoot  3.20667 -2.22178 17.7216
RightToes  -1.81608e-008 0 -3.6325e-017
Spine  18.3124 0.866741 -17.2352
Spine1  -12.0366 -2.67578 14.1323
HEad  -21.9283 -5.25147 -0.72869
LeftShoulder1  -0.146934 4.11783 -17.1966
LeftArm  0.99256 -26.3516 -58.6703
LeftForeArm  2.84172 -56.5973 -17.0505
LeftHand  -0.0854219 7.39176 -2.3463
RightShoulder  -0.500734 -5.20725 22.5538
RightArm  -9.10292 -2.3984 28.6152
RightForeArm  9.81154 74.645 49.3406
RightHand  -0.136647 1.13353 -2.5483
LeftUpLeg  -13.1151 17.2057 22.496
LeftLeg  3.79233 -15.7471 -0.25434
LeftFoot  6.43343 3.75922 -23.9797
LeftToes  1.81866e-011 -6.13092e-011 2.52013e-011
1507
root  -2.26829 37.2627 -1.71497 -167.017 76.6634 -167.708
RightUpLeg  -19.4795 -15.6769 -17.9796
RightLeg  58.7046 6.37119 10.7077
RightFoot  10.4771 -2.79385 14.6876
RightToes  -1.81608e-008 0 -3.6325e-017
Spine  18.7645 0.957032 -17.7197
Spine1  -12.7034 -2.62422 14.0563
HEad  -22.146 -5.28844 -0.643224
LeftShoulder1  -0.172411 4.22451 -17.1886
LeftArm  1.35213 -26.4703 -58.2837
LeftForeArm  3.0535 -56.7833 -17.1625
LeftHand  -0.0861433 7.34533 -1.92714
RightShoulder  -0.490012 -5.16944 22.5653
RightArm  -8.45236 -2.54195 28.7044
RightForeArm  8.21792 74.2515 47.6136
RightHand  -0.113664 1.00002 -2.17347
LeftUpLeg  -12.1743 17.4055 22.9129
LeftLeg  4.80847 -16.6574 -0.681487
LeftFoot  4.75139 3.38815 -23.8629
LeftToes  1.81866e-011 -6.13092e-011 2.52013e-011
1508
root  -1.74244 37.3922 -1.97919 -163.807 76.9983 -164.697
RightUpLeg  -22.6621 -16.9199 -18.3088
RightLeg  59.1664 7.49519 12.867
RightFoot  6.76334 -2.44025 15.5363
RightToes  -1.81608e-008 0 -3.6325e-017
Spine  18.3819 1.16124 -17.3985
Spine1  -12.8137 -2.19659 13.4902
HEad  -23.2403 -5.20004 -0.704415
LeftShoulder1  -0.174646 4.23564 -17.1376
LeftArm  1.34545 -27.0886 -58.1075
LeftForeArm  3.84731 -57.0674 -17.2938
LeftHand  -0.0912098 7.60221 -2.00134
RightShoulder  -0.497519 -5.19792 22.5186
RightArm  -8.07966 -2.10649 29.0237
RightForeArm  6.28864 73.8981 46.3197
RightHand  -0.11925 1.05138 -2.26137
LeftUpLeg  -11.453 17.752 23.6356
LeftLeg  5.36874 -16.7177 -0.838838
LeftFoot  3.44115 3.0967 -23.7285
LeftToes  1.81866e-011 -6.13092e-011 2.52013e-011
1509
root  -1.25061 37.4873 -2.16869 -162.336 76.9995 -163.898
RightUpLeg  -25.5171 -18.7668 -18.2885
RightLeg  55.5534 8.04917 12.054
RightFoot  4.47637 -2.25359 16.3323
RightToes  -1.81608e-008 0 -3.6325e-017
Spine  18.4337 1.04875 -17.1409
Spine1  -13.5803 -2.01393 12.8292
HEad  -24.3489 -5.05914 -0.511417
LeftShoulder1  -0.207082 4.37903 -16.897
LeftArm  0.991586 -27.3523 -58.1766
LeftForeArm  4.599 -57.468 -17.5154
LeftHand  -0.0961103 7.87527 -1.89026
RightShoulder  -0.496427 -5.18055 22.7597
RightArm  -7.92218 -1.34305 29.316
RightForeArm  4.33656 73.3132 44.1275
RightHand  -0.122611 1.16775 -2.28958
LeftUpLeg  -11.272 17.765 23.743
LeftLeg  5.47728 -16.5757 -0.835193
LeftFoot  2.52351 2.8914 -23.6077
LeftToes  1.81866e-011 -6.13092e-011 2.52013e-011
1510
root  -0.767123 37.5837 -2.29082 -160.308 76.7154 -162.496
RightUpLeg  -27.165 -20.6002 -17.304
RightLeg  48.0643 8.11594 9.27931
RightFoot  2.68769 -1.97397 16.0887
RightToes  -1.81608e-008 0 -3.6325e-017
Spine  18.5254 0.865459 -16.4304
Spine1  -14.065 -1.90069 12.5352
HEad  -25.1915 -4.93018 -0.511019
LeftShoulder1  -0.211271 4.38969 -17.1122
LeftArm  0.389078 -27.6811 -57.9828
LeftForeArm  5.1431 -57.6381 -17.5904
LeftHand  -0.0859374 7.59623 -2.27774
RightShoulder  -0.47286 -5.10732 22.6204
RightArm  -8.14202 -0.556117 29.9755
RightForeArm  2.67428 72.8564 42.6212
RightHand  -0.134853 1.19999 -2.49657
LeftUpLeg  -10.9607 17.903 24.1008
LeftLeg  4.99541 -16.7629 -0.659519
LeftFoot  1.92433 2.778 -23.6878
LeftToes  1.81866e-011 -6.13092e-011 2.52013e-011
1511
root  -0.301616 37.6179 -2.27953 -159.454 76.0268 -162.266
RightUpLeg  -27.6403 -22.3836 -15.8919
RightLeg  38.0364 7.32269 5.87885
RightFoot  0.638013 -1.64161 15.6015
RightToes  -1.81608e-008 0 -3.6325e-017
Spine  19.1186 0.734787 -15.9679
Spine1  -14.7613 -1.862 12.7499
HEad  -26.3001 -4.92386 -0.322811
LeftShoulder1  -0.163301 4.18525 -17.233
LeftArm  -0.199541 -27.9645 -57.8367
LeftForeArm  5.08778 -57.7128 -17.6515
LeftHand  -0.0759089 7.30183 -2.39905
RightShoulder  -0.481037 -5.13215 22.6804
RightArm  -8.7444 0.147668 30.1461
RightForeArm  3.07208 72.7453 42.1343
RightHand  -0.118611 1.16633 -2.21954
LeftUpLeg  -10.8832 17.9585 24.3551
LeftLeg  4.32356 -17.2287 -0.34771
LeftFoot  1.55562 2.72977 -23.9222
LeftToes  1.81866e-011 -6.13092e-011 2.52013e-011
1512
root  0.174254 37.5943 -2.13859 -160.878 75.1091 -164.594
RightUpLeg  -27.5267 -23.8961 -14.582
RightLeg  26.9637 5.46172 2.76516
RightFoot  -0.0353512 -1.50374 15.114
RightToes  -1.81608e-008 0 -3.6325e-017
Spine  19.5236 0.663937 -16.2559
Spine1  -15.2408 -1.94837 13.6047
HEad  -27.1944 -5.22046 -0.080912
LeftShoulder1  -0.108594 3.95845 -17.1507
LeftArm  -0.538279 -28.119 -57.8133
LeftForeArm  4.89319 -57.9559 -17.8526
LeftHand  -0.070467 7.12542 -2.05147
RightShoulder  -0.437298 -4.99173 22.4825
RightArm  -9.73105 0.31346 30.283
RightForeArm  3.66245 73.0342 43.1358
RightHand  -0.143225 1.78392 -2.48695
LeftUpLeg  -10.9611 17.9381 24.1794
LeftLeg  3.02166 -17.9071 -0.0610898
LeftFoot  1.47842 2.77538 -24.449
LeftToes  1.81866e-011 -6.13092e-011 2.52013e-011
1513
root  0.695588 37.4501 -1.83264 -163.516 74.1184 -168.476
RightUpLeg  -27.7412 -25.1459 -13.3193
RightLeg  17.274 2.48294 0.884054
RightFoot  0.263988 -1.54381 15.1157
RightToes  -1.81608e-008 0 -3.6325e-017
Spine  19.5902 0.57035 -16.4929
Spine1  -15.3775 -2.02982 13.6965
HEad  -27.6036 -5.95443 0.214219
LeftShoulder1  -0.0979163 3.91595 -17.0319
LeftArm  -0.516754 -28.7284 -58.2215
LeftForeArm  5.21191 -58.201 -18.01
LeftHand  -0.0758609 7.42437 -1.8484
RightShoulder  -0.427052 -4.97089 22.1869
RightArm  -11.2923 0.158703 30.5601
RightForeArm  6.32114 73.7475 45.6191
RightHand  -0.145691 0.767685 -2.83967
LeftUpLeg  -11.5168 17.7893 23.7488
LeftLeg  1.92123 -18.3301 0.226917
LeftFoot  1.37388 2.8938 -25.655
LeftToes  1.81866e-011 -6.13092e-011 2.52013e-011
1514
root  1.27364 37.1592 -1.33846 -167.479 72.7513 -173.562
RightUpLeg  -28.0179 -25.6474 -12.8959
RightLeg  11.4282 -1.73974 0.769803
RightFoot  0.552992 -1.73482 16.5478
RightToes  -1.81608e-008 0 -3.6325e-017
Spine  19.9874 0.466686 -17.0348
Spine1  -15.6358 -2.19308 13.5591
HEad  -28.3129 -6.86933 0.442016
LeftShoulder1  -0.0738171 3.81126 -17.2212
LeftArm  -0.413463 -29.3701 -58.0975
LeftForeArm  4.74429 -58.4865 -18.277
LeftHand  -0.0700008 7.21573 -1.79562
RightShoulder  -0.435931 -5.00261 22.1723
RightArm  -12.9774 0.0906941 30.6272
RightForeArm  9.30979 74.5024 48.6728
RightHand  -0.146495 0.557698 -2.97411
LeftUpLeg  -12.3446 17.8504 23.3183
LeftLeg  1.50335 -19.3815 0.00944696
LeftFoot  1.00405 2.93619 -26.7732
LeftToes  1.81866e-011 -6.13092e-011 2.52013e-011
1515
root  1.8534 36.7681 -0.713939 -172.015 70.6445 -179.15
RightUpLeg  -28.9164 -25.3491 -13.0726
RightLeg  10.5686 -2.8348 1.34522
RightFoot  1.39985 -1.77643 16.2517
RightToes  -1.81608e-008 0 -3.6325e-017
Spine  20.5922 0.274269 -17.4841
Spine1  -15.5893 -2.62149 13.5404
HEad  -28.5716 -7.90897 0.872128
LeftShoulder1  -0.00966675 3.54585 -16.9453
LeftArm  -0.365291 -30.1198 -58.5211
LeftForeArm  4.53456 -58.7023 -18.4681
LeftHand  -0.0687397 6.96436 -2.05571
RightShoulder  -0.439543 -5.01746 22.1238
RightArm  -14.8511 -0.0120429 30.3218
RightForeArm  13.5293 75.2596 52.1428
RightHand  -0.145584 1.71171 -2.55949
LeftUpLeg  -13.2667 17.841 22.6822
LeftLeg  0.604283 -20.8969 -0.103884
LeftFoot  0.458426 3.05331 -28.9738
LeftToes  1.81866e-011 -6.13092e-011 2.52013e-011
1516
root  2.32225 36.439 -0.0499063 -174.971 68.3587 177.437
RightUpLeg  -31.4477 -24.0235 -13.1063
RightLeg  14.6878 0.38249 1.08747
RightFoot  7.40778 -1.87846 11.5519
RightToes  -1.81608e-008 0 -3.6325e-017
Spine  22.1048 0.27454 -16.6967
Spine1  -15.3478 -3.10122 14.0326
HEad  -29.0278 -9.40386 1.11403
LeftShoulder1  0.0854604 3.1521 -17.6176
LeftArm  -0.415608 -31.4422 -58.3973
LeftForeArm  4.57625 -58.9106 -18.6329
LeftHand  -0.0815063 7.07698 -2.69662
RightShoulder  -0.418654 -4.95668 21.8806
RightArm  -16.7415 0.0537066 30.0798
RightForeArm  18.2897 76.0726 56.7597
RightHand  -0.168504 0.535428 -3.35654
LeftUpLeg  -13.1888 17.7276 22.3977
LeftLeg  -1.91636 -22.2625 0.66684
LeftFoot  0.548328 3.38924 -31.83
LeftToes  1.81866e-011 -6.13092e-011 2.52013e-011
1517
root  2.83324 35.8717 0.837774 -177.673 66.6125 174.809
RightUpLeg  -36.1874 -23.7553 -13.2817
RightLeg  24.8733 1.48111 0.376941
RightFoot  8.19995 -1.78588 10.6281
RightToes  -1.81608e-008 0 -3.6325e-017
Spine  24.0801 0.291026 -15.3486
Spine1  -15.2124 -3.03162 12.1797
HEad  -30.804 -10.8674 1.41949
LeftShoulder1  0.14553 2.91964 -18.3006
LeftArm  -0.833847 -32.8502 -58.5801
LeftForeArm  4.97351 -59.4105 -19.0052
LeftHand  -0.0871984 7.17465 -2.84127
RightShoulder  -0.424394 -4.97271 21.9188
RightArm  -18.7786 1.19972 29.7779
RightForeArm  20.2693 76.3806 58.9165
RightHand  -0.182462 1.18459 -3.34141
LeftUpLeg  -13.7297 17.9206 22.7189
LeftLeg  -1.65895 -23.9265 0.680248
LeftFoot  -0.178942 3.4083 -33.9172
LeftToes  1.81866e-011 -6.13092e-011 2.52013e-011
